<svg version="1.1" id="Layer_1" xmlns="http://www.w3.org/2000/svg" xmlns:xlink="http://www.w3.org/1999/xlink" x="0px" y="0px"
	 width="100%" viewBox="0 0 1080 1080" enable-background="new 0 0 1080 1080" xml:space="preserve">
<path fill="#000000" opacity="1.000000" stroke="none" 
	d="
M745.000000,1081.000000 
	C496.695251,1081.000000 248.890533,1081.000000 1.042898,1081.000000 
	C1.042898,721.070129 1.042898,361.140289 1.042898,1.105211 
	C360.888275,1.105211 720.776611,1.105211 1080.832520,1.105211 
	C1080.832520,360.999939 1080.832520,720.999939 1080.832520,1081.000000 
	C969.139832,1081.000000 857.319885,1081.000000 745.000000,1081.000000 
M863.654846,762.807190 
	C875.854370,747.690369 888.038208,732.560791 900.257385,717.459778 
	C915.995789,698.009521 931.896790,678.688354 947.422974,659.070374 
	C951.346008,654.113464 956.328247,649.158813 954.993225,641.761108 
	C954.268860,637.747559 953.347168,633.766785 952.420166,629.793213 
	C948.974670,615.024719 945.383057,600.289368 942.049988,585.495728 
	C938.686768,570.567322 935.561096,555.585388 932.339478,540.625183 
	C929.867188,529.144714 927.505005,517.639343 924.902893,506.188477 
	C923.511841,500.067047 921.716675,494.037445 919.998413,487.118591 
	C917.284241,473.921417 914.690796,460.697906 911.815552,447.535919 
	C909.739197,438.031097 907.126526,428.643555 905.045593,419.139648 
	C902.439819,407.238678 900.245117,395.247986 897.667725,383.340424 
	C894.889221,370.503479 892.049683,357.673492 888.841553,344.940063 
	C888.005249,341.620575 886.400452,337.832642 883.905884,335.744049 
	C879.894531,332.385345 874.952148,330.058838 870.221130,327.654388 
	C856.525879,320.694153 842.787842,313.814301 828.978271,307.084106 
	C809.425598,297.554962 789.801941,288.171021 770.192688,278.758453 
	C759.856323,273.796936 749.485840,268.906342 738.741028,263.367096 
	C719.603271,254.149582 700.423401,245.018265 681.338257,235.693024 
	C656.690186,223.649658 632.170837,211.341476 607.463623,199.421860 
	C603.061707,197.298233 598.377319,195.664871 593.008606,198.309006 
	C576.117493,206.628021 559.000244,214.487854 541.973145,222.530899 
	C521.205688,232.340744 500.421600,242.115677 479.682678,251.985458 
	C468.723663,257.200897 457.845215,262.585693 446.189423,267.974792 
	C439.415985,271.307251 432.700714,274.764801 425.857178,277.946503 
	C410.918884,284.891693 395.852173,291.562744 380.954102,298.592072 
	C361.586121,307.730408 342.372986,317.196930 323.005676,326.336731 
	C315.715790,329.776978 309.166412,333.640900 307.216797,342.282166 
	C304.191864,355.689606 301.044708,369.069580 298.040192,382.481537 
	C294.229095,399.494263 290.638733,416.557434 286.710022,433.542603 
	C283.330322,448.154205 279.559631,462.674957 276.074677,477.262878 
	C275.219543,480.842316 274.804626,484.526947 273.995056,489.015045 
	C273.646759,489.926697 273.193634,490.812958 272.966003,491.753815 
	C270.040009,503.848450 267.113098,515.943115 264.252136,528.053284 
	C260.145447,545.436462 256.082764,562.830078 252.019897,580.223572 
	C248.046021,597.236023 243.956619,614.223450 240.206955,631.285339 
	C238.821182,637.591003 237.006744,644.318481 241.559784,650.136719 
	C247.530731,657.766785 254.029083,664.983215 260.029480,672.591370 
	C273.107788,689.173889 285.982574,705.916626 299.001251,722.546387 
	C310.069092,736.684204 321.178802,750.789795 332.358826,764.838989 
	C336.739594,770.343933 341.362366,775.656311 346.013672,781.745056 
	C360.184692,799.839294 374.337769,817.947693 388.532227,836.023560 
	C400.820435,851.671997 413.473663,867.046814 425.349457,883.001282 
	C432.352814,892.409790 440.489716,896.731323 452.550415,896.324890 
	C476.681030,895.511780 500.857025,896.062561 525.014221,896.014771 
	C554.000244,895.957458 582.986145,895.863281 612.905762,895.921570 
	C630.966919,896.292236 649.026611,896.859497 667.089478,896.987183 
	C693.713989,897.175415 720.341064,896.968933 746.966064,897.116821 
	C753.563354,897.153442 758.156006,894.038208 762.007019,889.221985 
	C768.111694,881.587341 774.114380,873.870239 780.284058,866.288879 
	C789.463867,855.008606 798.842651,843.889587 807.970703,832.567993 
	C819.760742,817.944641 831.401245,803.200500 843.078003,788.485962 
	C849.764282,780.060181 856.394714,771.589966 863.654846,762.807190 
z"/>
<path fill="#009B95" opacity="1.000000" stroke="none" 
	d="
M345.874939,781.056396 
	C341.362366,775.656311 336.739594,770.343933 332.358826,764.838989 
	C321.178802,750.789795 310.069092,736.684204 299.001251,722.546387 
	C285.982574,705.916626 273.107788,689.173889 260.029480,672.591370 
	C254.029083,664.983215 247.530731,657.766785 241.559784,650.136719 
	C237.006744,644.318481 238.821182,637.591003 240.206955,631.285339 
	C243.956619,614.223450 248.046021,597.236023 252.019897,580.223572 
	C256.082764,562.830078 260.145447,545.436462 264.252136,528.053284 
	C267.113098,515.943115 270.040009,503.848450 272.966003,491.753815 
	C273.193634,490.812958 273.646759,489.926697 274.496765,488.704529 
	C285.109802,490.899933 295.221069,493.405884 305.192474,496.332703 
	C303.352570,505.679535 301.907074,514.663452 299.892212,523.517822 
	C296.950989,536.443115 293.516571,549.255249 290.445404,562.152039 
	C286.291809,579.594482 282.283234,597.071472 278.114990,614.951538 
	C331.628357,599.607849 375.399353,568.232056 418.513000,535.194824 
	C421.858765,539.276184 425.794189,542.907471 427.733063,547.400269 
	C432.942993,559.472900 438.177216,571.912598 450.454712,577.849731 
	C458.373138,581.678894 461.188538,586.383423 460.234192,594.587524 
	C455.002167,597.302185 453.760468,601.994873 452.560089,607.060669 
	C435.883911,622.627686 419.111755,637.601624 400.731781,650.584045 
	C385.187317,661.563660 369.055695,671.921631 351.286469,678.751587 
	C339.406494,683.317871 326.508057,685.234497 314.207550,688.301392 
	C322.654205,699.082947 331.713928,710.647339 340.773865,722.211487 
	C350.880524,735.111633 360.987457,748.011597 370.915833,761.204468 
	C362.449951,768.017029 354.162445,774.536743 345.874939,781.056396 
z"/>
<path fill="#EE3024" opacity="1.000000" stroke="none" 
	d="
M739.130798,263.983765 
	C749.485840,268.906342 759.856323,273.796936 770.192688,278.758453 
	C789.801941,288.171021 809.425598,297.554962 828.978271,307.084106 
	C842.787842,313.814301 856.525879,320.694153 870.221130,327.654388 
	C874.952148,330.058838 879.894531,332.385345 883.905884,335.744049 
	C886.400452,337.832642 888.005249,341.620575 888.841553,344.940063 
	C892.049683,357.673492 894.889221,370.503479 897.667725,383.340424 
	C900.245117,395.247986 902.439819,407.238678 905.045593,419.139648 
	C907.126526,428.643555 909.739197,438.031097 911.815552,447.535919 
	C914.690796,460.697906 917.284241,473.921417 919.650757,487.599945 
	C909.241333,490.463562 899.179443,492.845795 888.760864,495.014404 
	C879.921631,456.878754 871.439148,418.956757 862.756409,380.139648 
	C860.781738,381.942810 859.447449,382.889069 858.452515,384.111511 
	C847.583984,397.464447 835.612183,410.103058 826.225769,424.432861 
	C813.964600,443.151581 803.458008,463.053986 792.784424,482.765503 
	C786.243347,494.845306 780.803528,507.521393 774.511719,519.928467 
	C772.043335,518.220947 769.668884,516.754272 767.864380,514.769470 
	C756.736511,502.530029 744.694519,492.213135 726.674927,492.795288 
	C725.144226,492.844788 723.062622,491.358826 722.080994,489.983643 
	C719.107544,485.818329 716.549377,481.356567 713.894897,476.645813 
	C716.971558,471.223297 719.300781,466.046326 716.878906,459.644165 
	C720.318054,450.154816 723.154236,440.812012 727.145813,431.992157 
	C734.075500,416.680237 741.119019,401.361237 749.213135,386.649475 
	C759.806458,367.395050 772.818665,349.858490 790.849426,336.657471 
	C793.914917,334.413086 797.000488,332.196106 800.077271,329.966156 
	C790.149109,325.180115 780.570679,320.639587 771.060303,315.960541 
	C755.649902,308.378754 740.284119,300.706085 725.044312,292.746216 
	C729.836304,282.941711 734.483582,273.462738 739.130798,263.983765 
z"/>
<path fill="#FBB017" opacity="1.000000" stroke="none" 
	d="
M305.332336,495.911835 
	C295.221069,493.405884 285.109802,490.899933 274.592926,488.278595 
	C274.804626,484.526947 275.219543,480.842316 276.074677,477.262878 
	C279.559631,462.674957 283.330322,448.154205 286.710022,433.542603 
	C290.638733,416.557434 294.229095,399.494263 298.040192,382.481537 
	C301.044708,369.069580 304.191864,355.689606 307.216797,342.282166 
	C309.166412,333.640900 315.715790,329.776978 323.005676,326.336731 
	C342.372986,317.196930 361.586121,307.730408 380.954102,298.592072 
	C395.852173,291.562744 410.918884,284.891693 425.857178,277.946503 
	C432.700714,274.764801 439.415985,271.307251 446.718567,268.253998 
	C451.839813,278.068481 456.431915,287.603760 460.854309,297.450562 
	C454.780060,300.354065 448.805817,302.799500 442.985291,305.568115 
	C430.210510,311.644562 417.528809,317.916321 404.780548,324.048981 
	C391.789673,330.298279 378.770386,336.488647 365.749298,342.674835 
	C363.356659,343.811554 363.259827,344.552887 365.541107,346.266449 
	C385.746155,361.443085 407.607697,373.670319 431.065002,382.975586 
	C441.545227,387.132965 452.167725,391.027435 462.948578,394.308838 
	C479.110596,399.228210 495.468964,403.502441 511.868225,408.461426 
	C512.921570,414.025360 512.169800,418.843811 510.420929,423.867371 
	C506.222931,435.925598 504.267120,448.263000 508.273590,460.924774 
	C508.602112,461.962921 507.503143,463.911896 506.506897,464.828400 
	C502.735382,468.298248 498.732880,471.516998 494.463074,474.720398 
	C492.528961,473.400085 491.001068,472.112183 489.359222,470.991150 
	C481.341644,465.516663 476.465088,466.271118 470.370087,473.759430 
	C468.246857,476.368103 465.706543,477.165161 462.656891,474.575165 
	C447.289398,470.911896 431.857452,468.250214 416.800903,464.194763 
	C403.072083,460.496918 389.410339,456.085907 376.344727,450.520416 
	C363.272614,444.952179 350.658508,438.070465 339.918823,428.406891 
	C334.882355,423.875122 329.935242,419.244049 324.631744,414.367554 
	C322.999268,422.218079 321.546967,429.800171 319.832489,437.322510 
	C316.282959,452.896027 312.647797,468.450623 308.925659,483.983765 
	C307.959625,488.015289 306.542358,491.938751 305.332336,495.911835 
z"/>
<path fill="#F57E20" opacity="1.000000" stroke="none" 
	d="
M461.023987,297.139038 
	C456.431915,287.603760 451.839813,278.068481 447.089050,268.213623 
	C457.845215,262.585693 468.723663,257.200897 479.682678,251.985458 
	C500.421600,242.115677 521.205688,232.340744 541.973145,222.530899 
	C559.000244,214.487854 576.117493,206.628021 593.008606,198.309006 
	C598.377319,195.664871 603.061707,197.298233 607.463623,199.421860 
	C632.170837,211.341476 656.690186,223.649658 681.338257,235.693024 
	C700.423401,245.018265 719.603271,254.149582 738.935913,263.675415 
	C734.483582,273.462738 729.836304,282.941711 724.684387,292.682098 
	C688.336975,275.555267 652.494202,258.167023 615.512451,240.226212 
	C616.541077,248.837570 616.780884,256.413696 618.456299,263.657806 
	C621.509033,276.856812 624.676819,290.116486 629.140625,302.880798 
	C635.304871,320.507599 642.268127,337.893524 649.734070,355.014160 
	C655.513489,368.267334 662.589355,380.955078 668.768921,394.064758 
	C659.326721,398.358185 650.407471,402.583740 640.355591,404.710724 
	C626.337524,407.676819 614.454895,414.820221 607.802246,428.512604 
	C607.506714,429.120850 606.512207,429.389526 605.845215,429.400604 
	C606.464844,424.891968 607.125977,420.805115 607.690491,416.704956 
	C608.617310,409.972992 608.050720,403.432312 604.472046,397.488892 
	C600.578918,391.023376 594.429382,390.043030 588.508911,394.760468 
	C587.800964,395.324554 587.081482,395.874298 585.891602,396.801270 
	C583.668579,388.808167 579.460938,383.583832 570.962463,383.214722 
	C561.624756,365.253723 552.756226,347.457062 546.569031,328.383820 
	C541.369568,312.355774 537.809448,296.109985 538.087463,279.240631 
	C538.192017,272.895142 539.559021,266.570435 540.411926,259.744812 
	C536.728149,261.542664 533.197510,263.296967 529.640503,264.996094 
	C517.490356,270.800079 505.358490,276.643372 493.166809,282.358887 
	C482.489471,287.364441 471.741028,292.218231 461.023987,297.139038 
z"/>
<path fill="#1F61AD" opacity="1.000000" stroke="none" 
	d="
M345.944305,781.400757 
	C354.162445,774.536743 362.449951,768.017029 371.221497,761.359741 
	C392.869415,788.118835 414.033356,815.015442 435.940430,842.856506 
	C438.260010,836.664795 440.549530,831.762329 441.935486,826.616516 
	C445.445923,813.582764 448.932007,800.519409 451.692017,787.314148 
	C453.730164,777.562622 454.908051,767.599487 455.924469,757.674805 
	C457.015747,747.019043 457.586243,736.304443 458.172394,725.603943 
	C458.858276,713.082520 459.315674,700.548645 460.339722,687.979980 
	C467.036774,687.478210 472.915070,688.453186 478.587158,691.328918 
	C482.105591,693.112793 485.979919,694.270996 489.787842,695.393494 
	C501.869629,698.954956 513.631531,698.711975 524.796509,692.093384 
	C529.713196,689.178711 531.130188,689.666321 533.954712,695.291443 
	C533.845032,696.456970 533.774048,697.232788 533.584106,698.170837 
	C533.342590,698.589172 533.328491,698.851135 533.307251,699.495544 
	C529.010681,711.069946 529.571777,714.098999 536.986084,720.708008 
	C537.373108,728.581970 538.287598,736.024902 538.002441,743.421570 
	C537.290222,761.900818 536.006226,780.357605 535.002930,798.826172 
	C534.076599,815.879150 529.217590,831.907410 522.310669,847.375305 
	C519.998962,852.552246 517.231812,857.525818 514.414795,863.103271 
	C547.257507,863.103271 579.562927,863.103271 611.898071,863.564575 
	C611.942505,874.612244 611.957336,885.198608 611.972107,895.785034 
	C582.986145,895.863281 554.000244,895.957458 525.014221,896.014771 
	C500.857025,896.062561 476.681030,895.511780 452.550415,896.324890 
	C440.489716,896.731323 432.352814,892.409790 425.349457,883.001282 
	C413.473663,867.046814 400.820435,851.671997 388.532227,836.023560 
	C374.337769,817.947693 360.184692,799.839294 345.944305,781.400757 
z"/>
<path fill="#AF3862" opacity="1.000000" stroke="none" 
	d="
M889.117615,495.228058 
	C899.179443,492.845795 909.241333,490.463562 919.703491,488.023865 
	C921.716675,494.037445 923.511841,500.067047 924.902893,506.188477 
	C927.505005,517.639343 929.867188,529.144714 932.339478,540.625183 
	C935.561096,555.585388 938.686768,570.567322 942.049988,585.495728 
	C945.383057,600.289368 948.974670,615.024719 952.420166,629.793213 
	C953.347168,633.766785 954.268860,637.747559 954.993225,641.761108 
	C956.328247,649.158813 951.346008,654.113464 947.422974,659.070374 
	C931.896790,678.688354 915.995789,698.009521 900.257385,717.459778 
	C888.038208,732.560791 875.854370,747.690369 863.057983,762.797485 
	C854.265015,756.188171 846.068970,749.588501 838.032166,742.669678 
	C839.155945,741.117676 840.107727,739.874573 841.086853,738.653442 
	C857.620605,718.033752 874.170349,697.426880 890.686218,676.792908 
	C895.748169,670.468872 900.719482,664.072327 906.154297,657.173279 
	C897.846252,656.379211 890.543152,655.299316 883.211975,655.051025 
	C860.133118,654.269653 837.194641,655.929504 814.462341,660.047607 
	C798.803467,662.884399 783.164124,665.831604 767.536011,668.833374 
	C760.677551,670.150696 753.868835,671.727112 746.747681,672.950806 
	C745.775024,669.901428 744.464355,667.067688 744.551025,664.277344 
	C744.694153,659.670959 745.861511,655.106445 746.381531,650.499939 
	C747.851624,637.476501 745.549561,625.443726 737.256165,614.828735 
	C735.929199,613.130249 735.933716,610.391418 735.760315,608.102905 
	C736.858459,608.075989 737.519165,608.068909 738.179382,608.085022 
	C749.333923,608.357361 750.527710,607.251953 752.158936,596.478760 
	C752.325745,595.377197 754.734802,593.717163 755.969421,593.826599 
	C762.201599,594.379272 767.007629,592.560242 770.446411,586.921143 
	C772.627991,586.276184 774.383545,585.417480 776.238342,584.977661 
	C792.342041,581.159363 808.398865,577.101440 824.604736,573.772461 
	C833.860474,571.871155 843.339844,570.546875 852.769287,570.140442 
	C862.997009,569.699585 873.330994,570.136780 883.528809,571.121338 
	C890.898682,571.833008 898.121887,574.064331 905.595703,575.657349 
	C905.701721,575.126099 906.045349,574.451965 905.919861,573.880859 
	C901.631531,554.356140 897.251282,534.851562 892.998718,515.319092 
	C891.548096,508.656281 890.402588,501.926971 889.117615,495.228058 
z"/>
<path fill="#5F439A" opacity="1.000000" stroke="none" 
	d="
M837.872864,742.988831 
	C846.068970,749.588501 854.265015,756.188171 862.755676,762.963806 
	C856.394714,771.589966 849.764282,780.060181 843.078003,788.485962 
	C831.401245,803.200500 819.760742,817.944641 807.970703,832.567993 
	C798.842651,843.889587 789.463867,855.008606 780.284058,866.288879 
	C774.114380,873.870239 768.111694,881.587341 762.007019,889.221985 
	C758.156006,894.038208 753.563354,897.153442 746.966064,897.116821 
	C720.341064,896.968933 693.713989,897.175415 667.089478,896.987183 
	C649.026611,896.859497 630.966919,896.292236 612.438965,895.853271 
	C611.957336,885.198608 611.942505,874.612244 612.378479,863.511353 
	C646.589172,862.996826 680.349060,862.996826 714.507446,862.996826 
	C688.392639,819.844177 651.462585,786.548157 612.793091,754.565369 
	C614.356018,752.154480 615.531921,749.705627 617.435913,748.145081 
	C621.141235,745.108398 625.506775,742.866333 629.150940,739.768250 
	C639.414917,731.042480 647.828552,720.979919 646.957947,706.477905 
	C646.599854,700.513123 648.325867,697.444702 654.449097,696.927429 
	C658.488770,702.646912 663.529419,704.492920 670.187134,702.631714 
	C676.366333,706.805481 682.294434,710.764038 688.218323,714.728821 
	C709.788940,729.165955 729.554077,745.685852 747.314087,764.684875 
	C761.190796,779.529663 772.361816,795.884460 778.719727,815.795776 
	C783.061035,810.403320 787.145996,805.352844 791.205322,800.281799 
	C798.867798,790.709534 806.445679,781.068604 814.188843,771.562256 
	C822.001343,761.970764 829.971680,752.507996 837.872864,742.988831 
z"/>
<path fill="#000000" opacity="1.000000" stroke="none" 
	d="
M305.192444,496.332703 
	C306.542358,491.938751 307.959625,488.015289 308.925659,483.983765 
	C312.647797,468.450623 316.282959,452.896027 319.832489,437.322510 
	C321.546967,429.800171 322.999268,422.218079 324.631744,414.367554 
	C329.935242,419.244049 334.882355,423.875122 339.918823,428.406891 
	C350.658508,438.070465 363.272614,444.952179 376.344727,450.520416 
	C389.410339,456.085907 403.072083,460.496918 416.800903,464.194763 
	C431.857452,468.250214 447.289398,470.911896 462.222687,474.585999 
	C450.551392,472.627716 448.195038,480.648926 446.787231,489.065643 
	C431.252502,483.917786 426.267670,488.930634 428.195374,506.625275 
	C416.659973,503.682068 411.142120,511.330963 413.992493,523.280212 
	C414.959930,527.335815 416.768219,531.190857 418.192261,535.137512 
	C375.399353,568.232056 331.628357,599.607849 278.114990,614.951538 
	C282.283234,597.071472 286.291809,579.594482 290.445404,562.152039 
	C293.516571,549.255249 296.950989,536.443115 299.892212,523.517822 
	C301.907074,514.663452 303.352570,505.679535 305.192444,496.332703 
z"/>
<path fill="#000000" opacity="1.000000" stroke="none" 
	d="
M459.872192,688.020142 
	C459.315674,700.548645 458.858276,713.082520 458.172394,725.603943 
	C457.586243,736.304443 457.015747,747.019043 455.924469,757.674805 
	C454.908051,767.599487 453.730164,777.562622 451.692017,787.314148 
	C448.932007,800.519409 445.445923,813.582764 441.935486,826.616516 
	C440.549530,831.762329 438.260010,836.664795 435.940430,842.856506 
	C414.033356,815.015442 392.869415,788.118835 371.399872,761.066895 
	C360.987457,748.011597 350.880524,735.111633 340.773865,722.211487 
	C331.713928,710.647339 322.654205,699.082947 314.207550,688.301392 
	C326.508057,685.234497 339.406494,683.317871 351.286469,678.751587 
	C369.055695,671.921631 385.187317,661.563660 400.731781,650.584045 
	C419.111755,637.601624 435.883911,622.627686 452.883148,607.213440 
	C454.469482,609.000061 455.451843,610.816345 456.375214,612.523499 
	C451.073059,614.283630 445.837585,615.530151 443.682220,621.629761 
	C441.529358,627.722290 446.365082,631.156494 448.409454,635.776672 
	C442.787628,637.927734 437.387848,640.298462 437.993591,647.870300 
	C438.535675,654.646606 443.188934,658.301697 448.517731,661.581360 
	C439.068359,665.284546 439.262726,676.131592 446.539948,681.089478 
	C450.650208,683.889709 455.406738,685.741272 459.872192,688.020142 
z"/>
<path fill="#5F439A" opacity="1.000000" stroke="none" 
	d="
M460.339722,687.979980 
	C455.406738,685.741272 450.650208,683.889709 446.539948,681.089478 
	C439.262726,676.131592 439.068359,665.284546 448.517731,661.581360 
	C443.188934,658.301697 438.535675,654.646606 437.993591,647.870300 
	C437.387848,640.298462 442.787628,637.927734 448.409454,635.776672 
	C446.365082,631.156494 441.529358,627.722290 443.682220,621.629761 
	C445.837585,615.530151 451.073059,614.283630 456.375214,612.523499 
	C455.451843,610.816345 454.469482,609.000061 453.164062,607.031006 
	C453.760468,601.994873 455.002167,597.302185 460.591248,594.474976 
	C465.603821,593.690674 470.300385,592.031860 474.341797,593.028809 
	C487.466309,596.266663 500.341644,600.508789 513.338501,604.276001 
	C515.133118,604.796204 517.071899,604.819031 519.121094,605.362976 
	C522.435852,607.725464 525.601318,609.756042 528.705322,611.876770 
	C536.080444,616.915649 543.080261,622.505615 545.862549,631.361084 
	C547.711975,637.247498 551.161255,640.300232 556.814453,642.603027 
	C567.388977,646.910461 577.546143,652.242615 587.794556,657.475708 
	C587.533508,658.072815 587.414307,658.493408 587.167542,658.590759 
	C568.111023,666.107788 552.617065,678.659851 538.311523,692.943970 
	C537.264526,693.989441 535.450745,694.267090 533.993408,694.901672 
	C531.130188,689.666321 529.713196,689.178711 524.796509,692.093384 
	C513.631531,698.711975 501.869629,698.954956 489.787842,695.393494 
	C485.979919,694.270996 482.105591,693.112793 478.587158,691.328918 
	C472.915070,688.453186 467.036774,687.478210 460.339722,687.979980 
z"/>
<path fill="#1F61AD" opacity="1.000000" stroke="none" 
	d="
M518.943909,605.072083 
	C517.071899,604.819031 515.133118,604.796204 513.338501,604.276001 
	C500.341644,600.508789 487.466309,596.266663 474.341797,593.028809 
	C470.300385,592.031860 465.603821,593.690674 460.850159,594.245972 
	C461.188538,586.383423 458.373138,581.678894 450.454712,577.849731 
	C438.177216,571.912598 432.942993,559.472900 427.733063,547.400269 
	C425.794189,542.907471 421.858765,539.276184 418.513000,535.194824 
	C416.768219,531.190857 414.959930,527.335815 413.992493,523.280212 
	C411.142120,511.330963 416.659973,503.682068 428.195374,506.625275 
	C426.267670,488.930634 431.252502,483.917786 446.787231,489.065643 
	C448.195038,480.648926 450.551392,472.627716 462.321808,474.980286 
	C465.706543,477.165161 468.246857,476.368103 470.370087,473.759430 
	C476.465088,466.271118 481.341644,465.516663 489.359222,470.991150 
	C491.001068,472.112183 492.528961,473.400085 494.540070,475.019043 
	C500.566833,485.242645 506.794189,494.763031 511.565857,504.964294 
	C515.625427,513.643066 518.007751,523.106323 521.085999,532.633301 
	C523.750610,544.958191 521.162048,555.598083 512.742371,564.440613 
	C510.369019,566.933228 509.596100,568.985840 510.578003,572.177979 
	C511.619629,575.564209 512.158508,579.101624 513.039734,582.541443 
	C514.966553,590.062195 516.971130,597.563110 518.943909,605.072083 
z"/>
<path fill="#000000" opacity="1.000000" stroke="none" 
	d="
M669.088928,393.894165 
	C662.589355,380.955078 655.513489,368.267334 649.734070,355.014160 
	C642.268127,337.893524 635.304871,320.507599 629.140625,302.880798 
	C624.676819,290.116486 621.509033,276.856812 618.456299,263.657806 
	C616.780884,256.413696 616.541077,248.837570 615.512451,240.226212 
	C652.494202,258.167023 688.336975,275.555267 724.539673,293.007660 
	C740.284119,300.706085 755.649902,308.378754 771.060303,315.960541 
	C780.570679,320.639587 790.149109,325.180115 800.077271,329.966156 
	C797.000488,332.196106 793.914917,334.413086 790.849426,336.657471 
	C772.818665,349.858490 759.806458,367.395050 749.213135,386.649475 
	C741.119019,401.361237 734.075500,416.680237 727.145813,431.992157 
	C723.154236,440.812012 720.318054,450.154816 716.580322,459.501038 
	C714.033875,458.164337 711.869019,456.588837 709.529907,454.886566 
	C711.248291,451.000336 715.744995,447.855255 714.468262,441.546173 
	C713.071472,434.643524 707.222900,434.701660 702.959290,432.228485 
	C711.741821,415.818542 703.228943,411.753815 688.181641,409.563049 
	C692.281860,400.960999 689.423462,395.337036 679.998108,394.067108 
	C676.418945,393.584839 672.728577,393.927490 669.088928,393.894165 
z"/>
<path fill="#000000" opacity="1.000000" stroke="none" 
	d="
M888.760864,495.014404 
	C890.402588,501.926971 891.548096,508.656281 892.998718,515.319092 
	C897.251282,534.851562 901.631531,554.356140 905.919861,573.880859 
	C906.045349,574.451965 905.701721,575.126099 905.595703,575.657349 
	C898.121887,574.064331 890.898682,571.833008 883.528809,571.121338 
	C873.330994,570.136780 862.997009,569.699585 852.769287,570.140442 
	C843.339844,570.546875 833.860474,571.871155 824.604736,573.772461 
	C808.398865,577.101440 792.342041,581.159363 776.238342,584.977661 
	C774.383545,585.417480 772.627991,586.276184 770.413452,586.488281 
	C769.804871,582.832031 769.609314,579.628235 769.395081,576.118835 
	C774.696228,578.239929 780.278137,576.848572 783.029602,573.032654 
	C787.571533,566.733704 784.749329,559.679138 781.178284,553.253174 
	C790.255493,553.710815 795.140625,545.251404 791.450745,537.533264 
	C787.686951,529.660583 782.380005,523.931763 774.869202,519.929749 
	C780.803528,507.521393 786.243347,494.845306 792.784424,482.765503 
	C803.458008,463.053986 813.964600,443.151581 826.225769,424.432861 
	C835.612183,410.103058 847.583984,397.464447 858.452515,384.111511 
	C859.447449,382.889069 860.781738,381.942810 862.756409,380.139648 
	C871.439148,418.956757 879.921631,456.878754 888.760864,495.014404 
z"/>
<path fill="#F57E20" opacity="1.000000" stroke="none" 
	d="
M774.511719,519.928467 
	C782.380005,523.931763 787.686951,529.660583 791.450745,537.533264 
	C795.140625,545.251404 790.255493,553.710815 781.178284,553.253174 
	C784.749329,559.679138 787.571533,566.733704 783.029602,573.032654 
	C780.278137,576.848572 774.696228,578.239929 769.395081,576.118835 
	C769.609314,579.628235 769.804871,582.832031 770.033447,586.468689 
	C767.007629,592.560242 762.201599,594.379272 755.969421,593.826599 
	C754.734802,593.717163 752.325745,595.377197 752.158936,596.478760 
	C750.527710,607.251953 749.333923,608.357361 738.179382,608.085022 
	C737.519165,608.068909 736.858459,608.075989 735.454712,607.876587 
	C730.841125,605.469543 726.665344,603.657471 723.156433,600.973511 
	C711.798462,592.285645 701.508362,582.457031 692.705994,571.112488 
	C691.635132,569.732422 689.669922,569.046265 688.053467,567.660278 
	C686.649170,564.348694 685.260437,561.437073 683.981750,558.477905 
	C680.291992,549.938660 676.892090,541.407715 680.411926,531.807068 
	C680.913513,530.439026 680.112488,527.974915 679.060486,526.753418 
	C670.476990,516.787109 661.690491,506.995575 653.285645,496.905945 
	C656.039673,496.285400 658.481079,495.951721 660.906677,495.527588 
	C679.564392,492.265076 697.722595,487.566833 713.829346,477.010315 
	C716.549377,481.356567 719.107544,485.818329 722.080994,489.983643 
	C723.062622,491.358826 725.144226,492.844788 726.674927,492.795288 
	C744.694519,492.213135 756.736511,502.530029 767.864380,514.769470 
	C769.668884,516.754272 772.043335,518.220947 774.511719,519.928467 
z"/>
<path fill="#FBB017" opacity="1.000000" stroke="none" 
	d="
M713.894836,476.645813 
	C697.722595,487.566833 679.564392,492.265076 660.906677,495.527588 
	C658.481079,495.951721 656.039673,496.285400 652.825134,496.840027 
	C649.048401,497.015076 646.039551,497.186676 643.058167,496.974121 
	C634.282410,496.348358 625.907349,494.261658 619.953979,487.286407 
	C616.809326,483.602020 613.136108,483.844635 609.214844,484.070465 
	C606.283081,484.239349 603.359741,484.997437 600.445068,484.932678 
	C593.693481,484.782593 586.949341,484.292603 580.286621,483.624023 
	C589.251099,474.909027 595.507446,464.829041 599.168823,453.213287 
	C601.606079,445.481262 603.632874,437.619904 605.843323,429.816406 
	C606.512207,429.389526 607.506714,429.120850 607.802246,428.512604 
	C614.454895,414.820221 626.337524,407.676819 640.355591,404.710724 
	C650.407471,402.583740 659.326721,398.358185 668.768921,394.064758 
	C672.728577,393.927490 676.418945,393.584839 679.998108,394.067108 
	C689.423462,395.337036 692.281860,400.960999 688.181641,409.563049 
	C703.228943,411.753815 711.741821,415.818542 702.959290,432.228485 
	C707.222900,434.701660 713.071472,434.643524 714.468262,441.546173 
	C715.744995,447.855255 711.248291,451.000336 709.529907,454.886566 
	C711.869019,456.588837 714.033875,458.164337 716.497314,459.882935 
	C719.300781,466.046326 716.971558,471.223297 713.894836,476.645813 
z"/>
<path fill="#000000" opacity="1.000000" stroke="none" 
	d="
M460.854279,297.450531 
	C471.741028,292.218231 482.489471,287.364441 493.166809,282.358887 
	C505.358490,276.643372 517.490356,270.800079 529.640503,264.996094 
	C533.197510,263.296967 536.728149,261.542664 540.411926,259.744812 
	C539.559021,266.570435 538.192017,272.895142 538.087463,279.240631 
	C537.809448,296.109985 541.369568,312.355774 546.569031,328.383820 
	C552.756226,347.457062 561.624756,365.253723 570.684021,383.446777 
	C567.818237,385.688354 565.242981,387.353851 562.494934,389.131042 
	C559.565002,383.729736 555.825317,378.195770 549.356201,380.339203 
	C544.331970,382.003845 540.290405,386.634369 535.728516,390.008423 
	C528.566284,383.514008 522.550049,384.280121 516.884766,392.108887 
	C513.353577,396.988586 512.073547,402.292694 511.743835,408.051025 
	C495.468964,403.502441 479.110596,399.228210 462.948578,394.308838 
	C452.167725,391.027435 441.545227,387.132965 431.065002,382.975586 
	C407.607697,373.670319 385.746155,361.443085 365.541107,346.266449 
	C363.259827,344.552887 363.356659,343.811554 365.749298,342.674835 
	C378.770386,336.488647 391.789673,330.298279 404.780548,324.048981 
	C417.528809,317.916321 430.210510,311.644562 442.985291,305.568115 
	C448.805817,302.799500 454.780060,300.354065 460.854279,297.450531 
z"/>
<path fill="#009B95" opacity="1.000000" stroke="none" 
	d="
M511.868225,408.461426 
	C512.073547,402.292694 513.353577,396.988586 516.884766,392.108887 
	C522.550049,384.280121 528.566284,383.514008 535.728516,390.008423 
	C540.290405,386.634369 544.331970,382.003845 549.356201,380.339203 
	C555.825317,378.195770 559.565002,383.729736 562.494934,389.131042 
	C565.242981,387.353851 567.818237,385.688354 570.671997,383.790833 
	C579.460938,383.583832 583.668579,388.808167 585.891602,396.801270 
	C587.081482,395.874298 587.800964,395.324554 588.508911,394.760468 
	C594.429382,390.043030 600.578918,391.023376 604.472046,397.488892 
	C608.050720,403.432312 608.617310,409.972992 607.690491,416.704956 
	C607.125977,420.805115 606.464844,424.891968 605.845215,429.400604 
	C603.632874,437.619904 601.606079,445.481262 599.168823,453.213287 
	C595.507446,464.829041 589.251099,474.909027 580.064331,483.920807 
	C574.670288,486.362610 569.686157,488.600464 564.469299,489.915009 
	C558.126221,491.513367 551.722351,491.713776 547.228394,498.083649 
	C538.977112,509.778992 529.877869,520.876038 521.132141,532.222534 
	C518.007751,523.106323 515.625427,513.643066 511.565857,504.964294 
	C506.794189,494.763031 500.566833,485.242645 494.893799,475.128326 
	C498.732880,471.516998 502.735382,468.298248 506.506897,464.828400 
	C507.503143,463.911896 508.602112,461.962921 508.273590,460.924774 
	C504.267120,448.263000 506.222931,435.925598 510.420929,423.867371 
	C512.169800,418.843811 512.921570,414.025360 511.868225,408.461426 
z"/>
<path fill="#000000" opacity="1.000000" stroke="none" 
	d="
M612.735168,754.928833 
	C651.462585,786.548157 688.392639,819.844177 714.507446,862.996826 
	C680.349060,862.996826 646.589172,862.996826 612.348755,863.050049 
	C579.562927,863.103271 547.257507,863.103271 514.414795,863.103271 
	C517.231812,857.525818 519.998962,852.552246 522.310669,847.375305 
	C529.217590,831.907410 534.076599,815.879150 535.002930,798.826172 
	C536.006226,780.357605 537.290222,761.900818 538.002441,743.421570 
	C538.287598,736.024902 537.373108,728.581970 537.376709,720.742676 
	C539.446289,720.728943 541.143799,721.132690 542.807739,721.528503 
	C540.933228,739.074585 543.780029,739.210449 558.640808,740.500854 
	C557.824829,745.500854 556.576843,750.909363 561.185242,754.546021 
	C567.030823,759.158997 573.470276,756.942200 579.671021,754.753784 
	C580.626587,764.976624 583.073669,767.445740 593.356995,766.933105 
	C601.814758,766.511414 607.313110,760.619507 612.735168,754.928833 
z"/>
<path fill="#AF3862" opacity="1.000000" stroke="none" 
	d="
M612.793091,754.565369 
	C607.313110,760.619507 601.814758,766.511414 593.356995,766.933105 
	C583.073669,767.445740 580.626587,764.976624 579.671021,754.753784 
	C573.470276,756.942200 567.030823,759.158997 561.185242,754.546021 
	C556.576843,750.909363 557.824829,745.500854 558.640808,740.500854 
	C543.780029,739.210449 540.933228,739.074585 542.807739,721.528503 
	C541.143799,721.132690 539.446289,720.728943 537.358093,720.290527 
	C529.571777,714.098999 529.010681,711.069946 533.433716,699.338501 
	C533.799255,698.543457 533.808350,698.278015 533.703003,698.008545 
	C533.774048,697.232788 533.845032,696.456970 533.954712,695.291443 
	C535.450745,694.267090 537.264526,693.989441 538.311523,692.943970 
	C552.617065,678.659851 568.111023,666.107788 587.167542,658.590759 
	C587.414307,658.493408 587.533508,658.072815 588.223694,657.407959 
	C595.757080,655.451843 602.707336,653.745361 610.007080,655.917480 
	C612.086548,656.536316 614.950500,656.393555 616.848755,655.419373 
	C624.714294,651.382629 632.278259,646.762268 640.094727,642.624023 
	C644.256897,640.420593 648.708557,638.763977 653.266113,637.158203 
	C652.508606,646.636169 651.385315,655.804565 650.554260,664.999512 
	C649.578125,675.799561 649.280640,686.573730 654.171082,696.728394 
	C648.325867,697.444702 646.599854,700.513123 646.957947,706.477905 
	C647.828552,720.979919 639.414917,731.042480 629.150940,739.768250 
	C625.506775,742.866333 621.141235,745.108398 617.435913,748.145081 
	C615.531921,749.705627 614.356018,752.154480 612.793091,754.565369 
z"/>
<path fill="#5F439A" opacity="1.000000" stroke="none" 
	d="
M533.584106,698.170837 
	C533.808350,698.278015 533.799255,698.543457 533.549377,698.961914 
	C533.328491,698.851135 533.342590,698.589172 533.584106,698.170837 
z"/>
<path fill="#000000" opacity="1.000000" stroke="none" 
	d="
M838.032166,742.669678 
	C829.971680,752.507996 822.001343,761.970764 814.188843,771.562256 
	C806.445679,781.068604 798.867798,790.709534 791.205322,800.281799 
	C787.145996,805.352844 783.061035,810.403320 778.719727,815.795776 
	C772.361816,795.884460 761.190796,779.529663 747.314087,764.684875 
	C729.554077,745.685852 709.788940,729.165955 688.218323,714.728821 
	C682.294434,710.764038 676.366333,706.805481 670.471558,702.403564 
	C671.719238,700.970886 672.935547,699.978821 674.159851,698.980225 
	C682.370239,711.137756 691.129150,711.176086 698.494141,700.291809 
	C702.932190,706.737305 707.971558,709.693420 713.615784,707.856506 
	C719.715820,705.871460 721.917358,700.276306 723.444885,694.528503 
	C733.813049,703.693848 740.719360,698.360229 744.493469,689.530396 
	C746.593506,684.617371 746.269226,678.668091 747.037537,673.185852 
	C753.868835,671.727112 760.677551,670.150696 767.536011,668.833374 
	C783.164124,665.831604 798.803467,662.884399 814.462341,660.047607 
	C837.194641,655.929504 860.133118,654.269653 883.211975,655.051025 
	C890.543152,655.299316 897.846252,656.379211 906.154297,657.173279 
	C900.719482,664.072327 895.748169,670.468872 890.686218,676.792908 
	C874.170349,697.426880 857.620605,718.033752 841.086853,738.653442 
	C840.107727,739.874573 839.155945,741.117676 838.032166,742.669678 
z"/>
<path fill="#EE3024" opacity="1.000000" stroke="none" 
	d="
M746.747681,672.950806 
	C746.269226,678.668091 746.593506,684.617371 744.493469,689.530396 
	C740.719360,698.360229 733.813049,703.693848 723.444885,694.528503 
	C721.917358,700.276306 719.715820,705.871460 713.615784,707.856506 
	C707.971558,709.693420 702.932190,706.737305 698.494141,700.291809 
	C691.129150,711.176086 682.370239,711.137756 674.159851,698.980225 
	C672.935547,699.978821 671.719238,700.970886 670.218628,702.191223 
	C663.529419,704.492920 658.488770,702.646912 654.449097,696.927429 
	C649.280640,686.573730 649.578125,675.799561 650.554260,664.999512 
	C651.385315,655.804565 652.508606,646.636169 653.417114,636.833862 
	C654.571228,632.712280 655.567993,629.102844 657.094604,625.733521 
	C662.332764,614.173035 669.201660,604.219788 682.613892,601.367310 
	C682.977844,599.071655 683.320374,596.819519 683.693787,594.572449 
	C685.163696,585.726929 686.643250,576.882996 688.119202,568.038513 
	C689.669922,569.046265 691.635132,569.732422 692.705994,571.112488 
	C701.508362,582.457031 711.798462,592.285645 723.156433,600.973511 
	C726.665344,603.657471 730.841125,605.469543 735.017090,607.907227 
	C735.933716,610.391418 735.929199,613.130249 737.256165,614.828735 
	C745.549561,625.443726 747.851624,637.476501 746.381531,650.499939 
	C745.861511,655.106445 744.694153,659.670959 744.551025,664.277344 
	C744.464355,667.067688 745.775024,669.901428 746.747681,672.950806 
z"/>
<path fill="#000000" opacity="1.000000" stroke="none" 
	d="
M688.053467,567.660278 
	C686.643250,576.882996 685.163696,585.726929 683.693787,594.572449 
	C683.320374,596.819519 682.977844,599.071655 682.613892,601.367310 
	C669.201660,604.219788 662.332764,614.173035 657.094604,625.733521 
	C655.567993,629.102844 654.571228,632.712280 653.180603,636.536072 
	C648.708557,638.763977 644.256897,640.420593 640.094727,642.624023 
	C632.278259,646.762268 624.714294,651.382629 616.848755,655.419373 
	C614.950500,656.393555 612.086548,656.536316 610.007080,655.917480 
	C602.707336,653.745361 595.757080,655.451843 588.306030,657.080688 
	C577.546143,652.242615 567.388977,646.910461 556.814453,642.603027 
	C551.161255,640.300232 547.711975,637.247498 545.862549,631.361084 
	C543.080261,622.505615 536.080444,616.915649 528.705322,611.876770 
	C525.601318,609.756042 522.435852,607.725464 519.121094,605.362976 
	C516.971130,597.563110 514.966553,590.062195 513.039734,582.541443 
	C512.158508,579.101624 511.619629,575.564209 510.578003,572.177979 
	C509.596100,568.985840 510.369019,566.933228 512.742371,564.440613 
	C521.162048,555.598083 523.750610,544.958191 521.085999,532.633301 
	C529.877869,520.876038 538.977112,509.778992 547.228394,498.083649 
	C551.722351,491.713776 558.126221,491.513367 564.469299,489.915009 
	C569.686157,488.600464 574.670288,486.362610 579.979858,484.237244 
	C586.949341,484.292603 593.693481,484.782593 600.445068,484.932678 
	C603.359741,484.997437 606.283081,484.239349 609.214844,484.070465 
	C613.136108,483.844635 616.809326,483.602020 619.953979,487.286407 
	C625.907349,494.261658 634.282410,496.348358 643.058167,496.974121 
	C646.039551,497.186676 649.048401,497.015076 652.505188,497.084991 
	C661.690491,506.995575 670.476990,516.787109 679.060486,526.753418 
	C680.112488,527.974915 680.913513,530.439026 680.411926,531.807068 
	C676.892090,541.407715 680.291992,549.938660 683.981750,558.477905 
	C685.260437,561.437073 686.649170,564.348694 688.053467,567.660278 
z"/>
</svg>